<?xml version="1.0" encoding="UTF-8"?>
<svg xmlns="http://www.w3.org/2000/svg" xmlns:xlink="http://www.w3.org/1999/xlink" width="140px" height="42px" viewBox="0 0 140 42" version="1.1">
<defs>
<linearGradient id="linear0" gradientUnits="userSpaceOnUse" x1="68.7163" y1="9.59504" x2="76.9446" y2="57.7746" gradientTransform="matrix(0.853659,0,0,0.777778,0,0)">
<stop offset="0" style="stop-color:rgb(100%,19.607843%,41.176471%);stop-opacity:1;"/>
<stop offset="1" style="stop-color:rgb(100%,47.45098%,30.196078%);stop-opacity:1;"/>
</linearGradient>
</defs>
<g id="surface1">
<path style=" stroke:none;fill-rule:evenodd;fill:url(#linear0);" d="M 88.78125 9.394531 C 88.777344 9.0625 88.847656 8.730469 88.984375 8.421875 C 89.125 8.113281 89.328125 7.832031 89.589844 7.597656 C 89.847656 7.363281 90.15625 7.175781 90.492188 7.050781 C 90.832031 6.925781 91.195312 6.863281 91.5625 6.867188 L 93.519531 6.867188 L 93.519531 3.144531 C 93.457031 2.753906 93.488281 2.355469 93.613281 1.976562 C 93.734375 1.597656 93.945312 1.25 94.226562 0.949219 C 94.511719 0.652344 94.863281 0.414062 95.253906 0.25 C 95.648438 0.0859375 96.078125 0 96.511719 0 C 96.941406 0 97.371094 0.0859375 97.765625 0.25 C 98.160156 0.414062 98.507812 0.652344 98.792969 0.949219 C 99.078125 1.25 99.289062 1.597656 99.410156 1.976562 C 99.53125 2.355469 99.5625 2.753906 99.503906 3.144531 L 99.503906 6.867188 L 105.863281 6.867188 C 106.230469 6.863281 106.59375 6.925781 106.933594 7.050781 C 107.269531 7.175781 107.578125 7.363281 107.835938 7.597656 C 108.09375 7.832031 108.300781 8.113281 108.4375 8.421875 C 108.578125 8.730469 108.648438 9.0625 108.644531 9.394531 C 108.640625 10.066406 108.347656 10.707031 107.824219 11.179688 C 107.304688 11.65625 106.601562 11.921875 105.863281 11.921875 L 99.503906 11.921875 L 99.503906 20.878906 C 99.503906 25.25 102.167969 27.480469 105.863281 27.480469 C 106.609375 27.480469 107.320312 27.75 107.847656 28.230469 C 108.371094 28.710938 108.667969 29.359375 108.667969 30.039062 C 108.667969 30.714844 108.371094 31.367188 107.847656 31.847656 C 107.320312 32.324219 106.609375 32.59375 105.863281 32.59375 C 98.84375 32.59375 93.519531 28.082031 93.519531 20.878906 L 93.519531 11.921875 L 91.5625 11.921875 C 90.824219 11.921875 90.121094 11.65625 89.601562 11.179688 C 89.078125 10.707031 88.785156 10.066406 88.78125 9.394531 Z M 26.992188 19.78125 C 27.011719 17.277344 27.8125 14.828125 29.289062 12.726562 C 30.769531 10.621094 32.875 8.945312 35.351562 7.890625 C 37.832031 6.839844 40.585938 6.453125 43.296875 6.777344 C 46.007812 7.101562 48.558594 8.125 50.660156 9.730469 C 50.984375 9.988281 51.246094 10.304688 51.433594 10.65625 C 51.621094 11.011719 51.722656 11.398438 51.742188 11.792969 C 51.746094 12.53125 51.433594 13.246094 50.871094 13.777344 L 42.554688 22.847656 C 42.3125 23.132812 42 23.363281 41.644531 23.519531 C 41.285156 23.675781 40.894531 23.75 40.5 23.738281 C 40.132812 23.757812 39.769531 23.707031 39.425781 23.589844 C 39.085938 23.472656 38.773438 23.292969 38.507812 23.0625 C 38.246094 22.828125 38.039062 22.550781 37.898438 22.242188 C 37.757812 21.929688 37.6875 21.597656 37.691406 21.265625 C 37.675781 20.964844 37.722656 20.667969 37.832031 20.386719 C 37.945312 20.105469 38.117188 19.847656 38.335938 19.628906 L 44.882812 12.601562 C 43.808594 12 42.574219 11.691406 41.316406 11.710938 C 36.671875 11.710938 32.996094 15.277344 32.996094 19.78125 C 32.996094 24.28125 36.621094 27.851562 41.316406 27.851562 C 42.386719 27.859375 43.449219 27.667969 44.433594 27.28125 C 45.421875 26.898438 46.308594 26.332031 47.042969 25.617188 C 47.15625 25.53125 47.265625 25.449219 47.371094 25.367188 L 47.375 25.367188 C 48.074219 24.832031 48.65625 24.386719 49.640625 24.386719 C 50.023438 24.371094 50.402344 24.425781 50.761719 24.554688 C 51.117188 24.679688 51.445312 24.871094 51.71875 25.117188 C 51.992188 25.359375 52.207031 25.65625 52.351562 25.980469 C 52.496094 26.304688 52.566406 26.652344 52.558594 27.003906 C 52.503906 27.671875 52.195312 28.304688 51.6875 28.785156 C 50.390625 30.121094 48.789062 31.183594 47 31.894531 C 45.207031 32.609375 43.269531 32.953125 41.316406 32.910156 C 39.425781 32.9375 37.550781 32.617188 35.796875 31.964844 C 34.046875 31.316406 32.457031 30.347656 31.121094 29.125 C 29.78125 27.898438 28.730469 26.441406 28.019531 24.835938 C 27.3125 23.230469 26.960938 21.511719 26.992188 19.78125 Z M 15.40625 12.167969 L 3.402344 12.167969 C 2.667969 12.164062 1.96875 11.898438 1.449219 11.421875 C 0.929688 10.949219 0.636719 10.304688 0.632812 9.632812 C 0.628906 9.296875 0.699219 8.96875 0.835938 8.65625 C 0.972656 8.347656 1.179688 8.066406 1.4375 7.832031 C 1.695312 7.59375 2 7.40625 2.339844 7.28125 C 2.675781 7.15625 3.039062 7.09375 3.402344 7.097656 L 21.378906 7.097656 C 21.746094 7.09375 22.105469 7.15625 22.445312 7.28125 C 22.78125 7.40625 23.089844 7.59375 23.347656 7.832031 C 23.605469 8.066406 23.808594 8.347656 23.945312 8.65625 C 24.082031 8.96875 24.152344 9.296875 24.148438 9.632812 C 24.121094 10.308594 23.808594 10.949219 23.28125 11.421875 L 8.667969 27.40625 L 21.378906 27.40625 C 21.746094 27.402344 22.105469 27.464844 22.445312 27.589844 C 22.78125 27.714844 23.089844 27.902344 23.347656 28.140625 C 23.605469 28.375 23.808594 28.65625 23.945312 28.964844 C 24.082031 29.277344 24.152344 29.609375 24.148438 29.941406 C 24.144531 30.613281 23.851562 31.257812 23.332031 31.730469 C 22.816406 32.207031 22.113281 32.476562 21.378906 32.480469 L 2.769531 32.480469 C 2.027344 32.472656 1.320312 32.195312 0.800781 31.710938 C 0.28125 31.226562 -0.0078125 30.574219 0 29.894531 C 0.0195312 29.222656 0.308594 28.582031 0.816406 28.097656 Z M 64.054688 39.632812 L 64.054688 29.902344 C 66.546875 31.902344 69.753906 32.996094 73.066406 32.976562 C 80.886719 32.976562 86.808594 27.171875 86.808594 19.820312 C 86.808594 12.472656 80.886719 6.664062 73.066406 6.664062 C 69.742188 6.636719 66.527344 7.753906 64.054688 9.789062 L 64.054688 9.445312 C 63.953125 8.785156 63.59375 8.183594 63.046875 7.75 C 62.496094 7.316406 61.796875 7.074219 61.070312 7.074219 C 60.34375 7.074219 59.640625 7.316406 59.09375 7.75 C 58.542969 8.183594 58.183594 8.785156 58.082031 9.445312 L 58.082031 39.632812 C 58.183594 40.289062 58.542969 40.890625 59.09375 41.324219 C 59.640625 41.761719 60.34375 42 61.070312 42 C 61.796875 42 62.496094 41.761719 63.046875 41.324219 C 63.59375 40.890625 63.953125 40.289062 64.054688 39.632812 Z M 72.417969 11.726562 C 77.085938 11.726562 80.78125 15.203125 80.78125 19.820312 C 80.78125 24.441406 77.085938 27.917969 72.417969 27.917969 C 67.75 27.917969 64.054688 24.441406 64.054688 19.820312 L 64.054688 19.46875 C 64.222656 15.058594 67.75 11.726562 72.417969 11.726562 Z M 113.695312 12.496094 C 112.117188 14.65625 111.277344 17.191406 111.277344 19.789062 C 111.242188 21.519531 111.589844 23.242188 112.300781 24.847656 C 113.011719 26.453125 114.066406 27.910156 115.40625 29.136719 C 116.75 30.363281 118.34375 31.328125 120.101562 31.976562 C 121.859375 32.625 123.742188 32.941406 125.636719 32.910156 C 128.480469 32.910156 131.253906 32.140625 133.617188 30.699219 C 135.980469 29.257812 137.820312 27.207031 138.90625 24.8125 C 139.992188 22.414062 140.277344 19.773438 139.722656 17.226562 C 139.171875 14.683594 137.800781 12.34375 135.792969 10.507812 C 133.785156 8.671875 131.226562 7.425781 128.441406 6.917969 C 125.652344 6.410156 122.765625 6.671875 120.140625 7.664062 C 117.519531 8.65625 115.273438 10.339844 113.695312 12.496094 Z M 125.636719 11.714844 C 130.402344 11.714844 133.984375 15.332031 133.984375 19.789062 C 133.984375 24.199219 130.410156 27.863281 125.636719 27.863281 C 120.867188 27.863281 117.289062 24.246094 117.289062 19.789062 C 117.289062 15.332031 120.875 11.714844 125.636719 11.714844 Z M 125.636719 11.714844 "/>
</g>
</svg>
